<svg width="21" height="21" viewBox="0 0 21 21" fill="none" xmlns="http://www.w3.org/2000/svg">
<path fill-rule="evenodd" clip-rule="evenodd" d="M19.2033 6.37264L18.5808 5.29255C18.0543 4.37862 16.8873 4.06334 15.9721 4.58774V4.58774C15.5365 4.84437 15.0167 4.91718 14.5273 4.79011C14.0379 4.66304 13.6192 4.34654 13.3634 3.91039C13.1989 3.63317 13.1105 3.31742 13.1072 2.99506V2.99506C13.122 2.47825 12.927 1.97743 12.5666 1.60669C12.2062 1.23596 11.7111 1.02689 11.1941 1.0271H9.94011C9.43357 1.02709 8.94792 1.22894 8.59061 1.58797C8.23329 1.947 8.03378 2.43362 8.03622 2.94014V2.94014C8.0212 3.98595 7.16909 4.82583 6.12317 4.82573C5.80082 4.82238 5.48506 4.73397 5.20784 4.56943V4.56943C4.29267 4.04504 3.12572 4.36032 2.59915 5.27424L1.93095 6.37264C1.40502 7.28542 1.71601 8.45163 2.62661 8.98133V8.98133C3.21851 9.32306 3.58314 9.95461 3.58314 10.6381C3.58314 11.3216 3.21851 11.9531 2.62661 12.2948V12.2948C1.71716 12.821 1.40583 13.9844 1.93095 14.8944V14.8944L2.56253 15.9836C2.80925 16.4288 3.22321 16.7573 3.7128 16.8965C4.20239 17.0356 4.72725 16.9739 5.17123 16.725V16.725C5.60769 16.4704 6.1278 16.4006 6.61595 16.5312C7.1041 16.6619 7.51984 16.9821 7.77077 17.4207C7.9353 17.6979 8.02372 18.0137 8.02706 18.336V18.336C8.02706 19.3926 8.88356 20.2491 9.94011 20.2491H11.1941C12.2471 20.2491 13.1021 19.3981 13.1072 18.3452V18.3452C13.1047 17.8371 13.3055 17.349 13.6648 16.9897C14.0241 16.6305 14.5121 16.4297 15.0202 16.4321C15.3418 16.4407 15.6562 16.5288 15.9355 16.6884V16.6884C16.8483 17.2144 18.0145 16.9034 18.5442 15.9928V15.9928L19.2033 14.8944C19.4584 14.4565 19.5284 13.935 19.3978 13.4454C19.2672 12.9558 18.9469 12.5384 18.5076 12.2857V12.2857C18.0684 12.033 17.748 11.6156 17.6174 11.126C17.4868 10.6363 17.5569 10.1148 17.812 9.67699C17.9778 9.38736 18.218 9.14722 18.5076 8.98133V8.98133C19.4128 8.45192 19.723 7.29252 19.2033 6.38179V6.38179V6.37264Z" stroke="#130F26" stroke-width="1.5" stroke-linecap="round" stroke-linejoin="round"/>
<circle cx="10.5717" cy="10.6381" r="2.63616" stroke="#130F26" stroke-width="1.5" stroke-linecap="round" stroke-linejoin="round"/>
</svg>
