<svg width="24" height="25" viewBox="0 0 24 25" fill="none" xmlns="http://www.w3.org/2000/svg">
<path d="M3.01001 12.0599V16.5499C3.01001 21.0399 4.81001 22.8399 9.30001 22.8399H14.69C19.18 22.8399 20.98 21.0399 20.98 16.5499V12.0599" stroke="#141414" stroke-width="1.5" stroke-linecap="round" stroke-linejoin="round"/>
<path d="M12 12.84C13.83 12.84 15.18 11.35 15 9.51997L14.34 2.83997H9.66999L8.99999 9.51997C8.81999 11.35 10.17 12.84 12 12.84Z" stroke="#141414" stroke-width="1.5" stroke-linecap="round" stroke-linejoin="round"/>
<path d="M18.31 12.84C20.33 12.84 21.81 11.2 21.61 9.18997L21.33 6.43997C20.97 3.83997 19.97 2.83997 17.35 2.83997H14.3L15 9.84997C15.17 11.5 16.66 12.84 18.31 12.84Z" stroke="#141414" stroke-width="1.5" stroke-linecap="round" stroke-linejoin="round"/>
<path d="M5.64 12.84C7.29 12.84 8.78 11.5 8.94 9.84997L9.16 7.63997L9.64001 2.83997H6.59C3.97001 2.83997 2.97 3.83997 2.61 6.43997L2.34 9.18997C2.14 11.2 3.62 12.84 5.64 12.84Z" stroke="#141414" stroke-width="1.5" stroke-linecap="round" stroke-linejoin="round"/>
<path d="M12 17.84C10.33 17.84 9.5 18.67 9.5 20.34V22.84H14.5V20.34C14.5 18.67 13.67 17.84 12 17.84Z" stroke="#141414" stroke-width="1.5" stroke-linecap="round" stroke-linejoin="round"/>
</svg>
